<?xml version="1.0" encoding="iso-8859-1"?>
<!-- Uploaded to: SVG Repo, www.svgrepo.com, Generator: SVG Repo Mixer Tools -->
<svg fill="#000000" height="800px" width="800px" version="1.1" id="Capa_1" xmlns="http://www.w3.org/2000/svg" xmlns:xlink="http://www.w3.org/1999/xlink" 
	 viewBox="0 0 489.401 489.401" xml:space="preserve">
<g>
	<path d="M461.2,31.248h-433c-15.6,0-28.2,12.6-28.2,28.2v270c0,15.6,12.6,28.2,28.2,28.2h40.1v93.4c0,6.3,7.7,9.5,12.1,5l98.4-98.4
		h282.4c15.6,0,28.2-12.6,28.2-28.2v-270C489.5,43.848,476.8,31.248,461.2,31.248z M184.6,94.448h219.3v29.2H184.6V94.448z
		 M85.1,94.448h66.1v29.2H85.1V94.448z M85.1,151.248h151.5v29.2H85.1V151.248z M85.1,208.048h219.3v29.2H85.1V208.048z
		 M236.6,294.048H85.1v-29.2h151.5V294.048z M404.3,294.148H270v-29.2h134.3L404.3,294.148L404.3,294.148z M337.8,237.248v-29.2
		h66.1v29.2H337.8z M404.3,180.548H270v-29.2h134.3L404.3,180.548L404.3,180.548z"/>
</g>
</svg>